<?xml version="1.0" encoding="utf-8"?>
<!-- Generator: Adobe Illustrator 23.0.4, SVG Export Plug-In . SVG Version: 6.00 Build 0)  -->
<svg version="1.1" id="Layer_1" xmlns="http://www.w3.org/2000/svg" xmlns:xlink="http://www.w3.org/1999/xlink" x="0px" y="0px"
	 viewBox="0 0 156 144" style="enable-background:new 0 0 156 144;" xml:space="preserve">
<style type="text/css">
	.st0{fill:#E25D5D;}
	.st1{opacity:0.3;}
</style>
<g>
	<g>
		<g>
			<g>
				<path class="st0" d="M47.6,48.2l-2.7-2.7c-1-1-2.7-1-3.4,0c-1,1-1,2.7,0,3.4l2.7,2.7c0.3,0.3,1,0.7,1.7,0.7s1.4-0.3,1.7-0.7
					C48.7,50.6,48.7,48.9,47.6,48.2z"/>
			</g>
		</g>
		<g>
			<g>
				<path class="st0" d="M47.3,112.7c-1-1-2.7-1-3.4,0l-2,2c-1,1-1,2.7,0,3.4c0.3,0.3,1,0.7,1.7,0.7s1.4-0.3,1.7-0.7l2-1.7
					C48,115.4,48,113.7,47.3,112.7z"/>
			</g>
		</g>
		<g>
			<g class="st1">
				<g>
					<g>
						<path class="st0" d="M78.3,8.4c-1.4,0-2.4,1-2.4,2.4v25.6c0,1.4,1,2.4,2.4,2.4s2.4-1,2.4-2.4V10.7C80.7,9.7,79.7,8.4,78.3,8.4
							z"/>
					</g>
				</g>
				<g>
					<g>
						<path class="st0" d="M149.6,80.3h-10.2c-1.4,0-2.4,1-2.4,2.4c0,1.4,1,2.4,2.4,2.4h10.2c1.4,0,2.4-1,2.4-2.4
							S151,80.3,149.6,80.3z"/>
					</g>
				</g>
				<g>
					<g>
						<path class="st0" d="M132.2,80.3h-8.5c-1.4,0-2.4,1-2.4,2.4c0,1.4,1,2.4,2.4,2.4h8.5c1.4,0,2.4-1,2.4-2.4
							C134.6,81.3,133.6,80.3,132.2,80.3z"/>
					</g>
				</g>
				<g>
					<g>
						<path class="st0" d="M130.5,30.5c-1-1-2.7-1-3.4,0l-18.4,18.1c-1,1-1,2.7,0,3.4c0.3,0.3,1,0.7,1.7,0.7s1.4-0.3,1.7-0.7
							l18.1-18.1C131.5,32.9,131.5,31.2,130.5,30.5z"/>
					</g>
				</g>
				<g>
					<g>
						<path class="st0" d="M39.8,40.1L29.6,29.8c-1-1-2.7-1-3.4,0c-0.7,1-1,2.7,0,3.4l10.2,10.2c0.3,0.3,1,0.7,1.7,0.7
							s1.4-0.3,1.7-0.7C40.8,42.8,40.8,41.1,39.8,40.1z"/>
					</g>
				</g>
				<g>
					<g>
						<path class="st0" d="M32.3,79.6H6.4C5,79.6,4,80.6,4,82c0,1.4,1,2.4,2.4,2.4H32c1.4,0,2.4-1,2.4-2.4
							C34.7,80.6,33.7,79.6,32.3,79.6z"/>
					</g>
				</g>
				<g>
					<g>
						<path class="st0" d="M39.1,120.9c-1-1-2.7-1-3.4,0l-10.2,10.2c-1,1-1,2.7,0,3.4c0.3,0.3,1,0.7,1.7,0.7c0.7,0,1.4-0.3,1.7-0.7
							l10.2-10.2C39.8,123.6,39.8,121.9,39.1,120.9z"/>
					</g>
				</g>
				<g>
					<g>
						<path class="st0" d="M130.2,131.5l-18.1-18.1c-1-1-2.7-1-3.4,0c-0.7,1-1,2.7,0,3.4l18.1,18.1c0.3,0.3,1,0.7,1.7,0.7
							c0.7,0,1.4-0.3,1.7-0.7C131.2,134.2,131.2,132.5,130.2,131.5z"/>
					</g>
				</g>
				<g>
					<g>
						<path class="st0" d="M63,39l-6.1-14.7c-0.7-1.4-2-2-3.1-1.4c-1.4,0.7-2,2-1.4,3.1l6.1,14.7c0.3,1,1.4,1.4,2.4,1.4
							c0.3,0,0.7,0,1-0.3C63,41.8,63.7,40.4,63,39z"/>
					</g>
				</g>
				<g>
					<g>
						<path class="st0" d="M137.3,58.1c-0.7-1.4-2-2-3.1-1.4l-14.7,6.1c-1.4,0.7-2,2-1.4,3.1c0.3,1,1.4,1.4,2.4,1.4
							c0.3,0,0.7,0,1-0.3l14.7-6.1C137.3,60.9,138,59.5,137.3,58.1z"/>
					</g>
				</g>
				<g>
					<g>
						<path class="st0" d="M102.9,23.4c-1.4-0.7-2.7,0-3.1,1.4l-6.1,14.7c-0.7,1.4,0,2.7,1.4,3.1c0.3,0,0.7,0.3,1,0.3
							c1,0,2-0.7,2.4-1.4l6.1-14.7C104.6,25.4,104.3,24,102.9,23.4z"/>
					</g>
				</g>
				<g>
					<g>
						<path class="st0" d="M36.7,62.2l-14.7-6.1c-1.4-0.7-2.7,0-3.1,1.4c-0.7,1.4,0,2.7,1.4,3.1L35,66.7c0.3,0,0.7,0.3,1,0.3
							c1,0,2-0.7,2.4-1.4C38.8,64.3,38.1,62.9,36.7,62.2z"/>
					</g>
				</g>
				<g>
					<g>
						<path class="st0" d="M37.8,98.7c-0.7-1.4-2-2-3.1-1.4L20,103.5c-1.4,0.7-2,2-1.4,3.1c0.3,1,1.4,1.4,2.4,1.4c0.3,0,0.7,0,1-0.3
							l14.7-6.1C37.8,101.4,38.4,100.1,37.8,98.7z"/>
					</g>
				</g>
				<g>
					<g>
						<path class="st0" d="M135.6,104.2L121,98c-1.4-0.7-2.7,0-3.1,1.4c-0.3,1.4,0,2.7,1.4,3.1l14.7,6.1c0.3,0,0.7,0.3,1,0.3
							c1,0,2-0.7,2.4-1.4C137.7,106.2,137,104.5,135.6,104.2z"/>
					</g>
				</g>
			</g>
		</g>
	</g>
	<g>
		<path class="st0" d="M92,74.8c-8.2,0.7-13,6.8-13.3,13.6c0,6.8,5.1,13,11.6,13.6c7.2,1,13.6-3.4,15.3-10.2c1-4.1,0.3-7.8-2-11.3
			c-2.4-3.4-5.8-5.1-9.9-5.8c1.4-2,2.7-3.8,3.8-5.5c0-0.3,0.7-0.3,1-0.3c4.1,1.4,7.5,3.8,10.2,7.2c9.2,12.3,2,30-13.3,32.4
			c-10.9,1.4-21.1-6.1-22.8-17.1c-1.4-10.2,4.8-19.8,14.3-22.2c0.3,0,0.7,0,1,0C89.3,71.1,90.6,73.1,92,74.8z"/>
		<path class="st0" d="M76.6,73.5c-1.4,1.7-2.4,3.4-3.8,5.1c-3.1-2.7-6.8-4.1-10.9-3.8c-3.8,0.3-6.5,2-8.9,4.8
			C48.7,85.1,49,92.9,53.8,98c4.8,4.8,13.3,5.8,19.1,0.3c1.4,1.7,2.4,3.4,3.8,5.1c-6.8,6.5-19.1,7.2-27.3-0.7
			C41.5,95,41.2,82.4,49,74.5C57.2,66.3,69.5,67,76.6,73.5z"/>
		<path class="st0" d="M101.5,60.9c-3.1,4.1-5.8,8.2-8.5,12.3c-3.4-4.4-6.5-8.9-9.9-13.3c1-1.4,1.7-2.7,2.7-4.1
			c0-0.3,0.3-0.3,0.7-0.3c4.4,0,8.5,0,12.6,0c0.3,0,0.3,0,0.7,0.3c0.7,1,1.4,2.4,2,3.8c-0.3,0-1,0-1,0c-3.4,0-7.2,0-10.6,0
			c-0.3,0-0.7,0-1,0c-0.3,0.3-0.7,0.3-0.7,0.7s0.3,0.7,0.3,0.7c0.3,0,0.7,0,1,0c3.4,0,7.2,0,10.6,0
			C100.8,60.9,100.8,60.9,101.5,60.9z"/>
		<path class="st0" d="M63.7,58.5c0-2-0.3-4.1-0.3-6.1c0-0.3,0-0.7,0.3-1c0.3-1,1.4-1.7,2.7-1.4c1,0.3,2,1.4,1.7,2.7
			c-0.3,2-0.3,2,1.7,1.7c1.4-0.3,2.7,0.7,2.7,2c0.3,1-0.7,2.4-2,2.4c-1.4,0.3-3.1,0-4.4,0C65,58.8,64.4,58.8,63.7,58.5z"/>
		<path class="st0" d="M56.9,63.9c-0.3,0-1,0-1.4-0.3c-0.7-0.3-1-0.7-0.7-1.4c0.3-0.7,0.7-1,1.4-1c0.3,0,0.3,0,0.3,0
			c1,0.3,1.4-0.3,1-1c0-0.3-0.3-1,0-1c0.3-0.3,1-1,1.4-1s1,0.7,1,1c0.3,0.7,0,1.7,0,2.4s0,1.4-0.3,1.7s-1.4,0.3-1.7,0.3
			C57.5,63.9,57.2,63.9,56.9,63.9z"/>
	</g>
</g>
</svg>
