<?xml version="1.0" encoding="utf-8"?>
<!-- Generator: Adobe Illustrator 23.0.4, SVG Export Plug-In . SVG Version: 6.00 Build 0)  -->
<svg version="1.1" id="logo-dark" xmlns="http://www.w3.org/2000/svg" xmlns:xlink="http://www.w3.org/1999/xlink" x="0px" y="0px"
	 viewBox="0 0 186.9 25.7" style="enable-background:new 0 0 186.9 25.7;" xml:space="preserve">
<style type="text/css">
	.st0{fill:#A84D48;}
	.st1{fill:#F2766E;}
</style>
<g>
	<g>
		<path class="st0" d="M13.2,20.4c-0.4-0.9-0.2-1.4,0.5-2.1c2.1-2,4.2-4.1,6.2-6.2c0.1-0.1,0.2-0.2,0.3-0.4
			c-0.1,0.1-0.3,0.2-0.4,0.2c-2.8,1.8-5.5,3.7-8.3,5.5c-0.3,0.2-0.5,0.2-0.9,0c-1.3-0.8-2.6-1.6-4.1-2.5c0.6,0.8,1.3,1.5,1.9,2.2
			c1.5,1.6,3.4,3.2,5.2,4.6C13.5,21.3,13.3,20.9,13.2,20.4z"/>
		<path class="st1" d="M32.7,7.6c-0.3-3.8-3.5-7.2-8.2-6.9c-3.8,0.2-6.3,3.9-6.3,3.9s-2.5-3.6-6.3-3.8C7.2,0.6,4,4,3.8,7.8
			c-0.1,2.6,1.1,5,2.5,7c5.9-2.2,11.7-4.4,17.6-6.6c-1.1,5.2-2.2,10.2-3.3,15.4c2.4-1.7,5.4-4,7.5-6.4C30.3,14.8,32.9,11.4,32.7,7.6
			z"/>
		<path class="st0" d="M15.6,20.9c-0.5,0.5-0.9,0.9-1.4,1.4c1.5,1.1,3,2.1,4.1,2.7c0.6-0.4,1.4-0.8,2.1-1.4
			C18.8,22.7,17.3,21.8,15.6,20.9z"/>
	</g>
	<g>
		<path class="st1" d="M65.4,24.1h-4.6V13.5c0-2.6-1.2-3.5-2.5-3.5c-2.3,0-3.1,1.5-3.1,3.6v10.5h-4.6V13.6c0-1.5,0-3.6-2.8-3.6
			c-2.2,0-2.9,1.5-2.9,3.4v10.7h-4.6V6.6h4.4v2.6h0.1c0.6-1.2,1.9-3,5-3c2.5,0,3.7,0.9,4.9,2.8c0.6-0.9,1.9-2.8,4.7-2.8
			c3.4,0,6.1,2,6.1,5.9V24.1z"/>
		<path class="st1" d="M76.1,24.6c-4.7,0-8.9-2.9-8.9-9.2s4.2-9.2,8.9-9.2c4.7,0,8.9,2.9,8.9,9.2S80.8,24.6,76.1,24.6z M76.1,10
			c-3.6,0-4.2,3.1-4.2,5.3s0.7,5.3,4.2,5.3c3.6,0,4.2-3.1,4.2-5.3S79.7,10,76.1,10z"/>
		<path class="st1" d="M86.8,7h4.4v3h0.1c1-1.8,2-3.5,4.8-3.5c0.3,0,0.6,0,0.9,0.1v4.7c-0.4-0.1-0.9-0.1-1.3-0.1
			c-3.6,0-4.2,2.2-4.2,4.2v9.1h-4.6V7z"/>
		<path class="st1" d="M113.3,21.1c0,2.1,0.5,2.5,1,2.7v0.7h-5c-0.3-0.8-0.3-1.1-0.4-2.1c-1.1,1.1-2.5,2.5-5.7,2.5
			c-2.6,0-5.3-1.5-5.3-5.1c0-3.4,2.2-5.2,5.1-5.6l4.1-0.6c0.7-0.1,1.6-0.4,1.6-1.4c0-1.9-1.8-2-3-2c-2.3,0-2.7,1.4-2.8,2.4h-4.4
			c0.5-5.4,4.2-6.1,7.8-6.1c2.5,0,7,0.8,7,5.1V21.1z M108.8,16c-0.5,0.4-1.2,0.7-3.1,1c-1.7,0.3-3.1,0.7-3.1,2.6
			c0,1.6,1.3,2.1,2.1,2.1c2,0,4.1-1.3,4.1-3.5V16z"/>
		<path class="st1" d="M120.7,9.3L120.7,9.3c0.8-1.1,2.2-2.7,5.1-2.7c3.9,0,7.3,3,7.3,9c0,4.8-2.2,9.4-7.4,9.4
			c-1.9,0-3.9-0.7-5.1-2.7h-0.1v2.2h-4.5V0.9h4.6V9.3z M124.4,10.6c-3.2,0-3.9,2.8-3.9,5.6c0,2.6,1.2,5,4.1,5c3,0,3.8-3.2,3.8-5.3
			C128.4,13.2,127.4,10.6,124.4,10.6z"/>
		<path class="st1" d="M139.4,5h-4.6V0.7h4.6V5z M139.4,7v17.5h-4.6V7H139.4z"/>
	</g>
</g>
</svg>
